<svg width="177" height="36" viewBox="0 0 177 36" fill="none" xmlns="http://www.w3.org/2000/svg">
<path d="M15.9566 5.8541C16.5553 4.01148 19.1622 4.01148 19.7609 5.8541L21.4193 10.9581C21.687 11.7822 22.4549 12.3401 23.3214 12.3401H28.688C30.6255 12.3401 31.431 14.8193 29.8636 15.9581L25.5219 19.1126C24.8209 19.6219 24.5276 20.5246 24.7953 21.3486L26.4537 26.4527C27.0524 28.2953 24.9435 29.8275 23.3761 28.6887L19.0343 25.5343C18.3333 25.025 17.3841 25.025 16.6832 25.5343L12.3414 28.6887C10.774 29.8275 8.66505 28.2953 9.26375 26.4527L10.9221 21.3486C11.1899 20.5246 10.8966 19.6219 10.1956 19.1126L5.85387 15.9581C4.28644 14.8193 5.09199 12.3401 7.02943 12.3401H12.3961C13.2626 12.3401 14.0305 11.7822 14.2982 10.9581L15.9566 5.8541Z" fill="#FFB04E"/>
<path d="M86.5979 5.8541C87.1966 4.01148 89.8034 4.01148 90.4021 5.8541L92.0605 10.9581C92.3282 11.7822 93.0961 12.3401 93.9626 12.3401H99.3293C101.267 12.3401 102.072 14.8193 100.505 15.9581L96.1631 19.1126C95.4621 19.6219 95.1688 20.5246 95.4366 21.3486L97.095 26.4527C97.6937 28.2953 95.5847 29.8275 94.0173 28.6887L89.6756 25.5343C88.9746 25.025 88.0254 25.025 87.3244 25.5343L82.9827 28.6887C81.4152 29.8275 79.3063 28.2953 79.905 26.4527L81.5634 21.3486C81.8311 20.5246 81.5378 19.6219 80.8368 19.1126L76.4951 15.9581C74.9277 14.8193 75.7332 12.3401 77.6707 12.3401H83.0374C83.9038 12.3401 84.6717 11.7822 84.9395 10.9581L86.5979 5.8541Z" fill="#FFB04E"/>
<path d="M157.239 5.8541C157.838 4.01148 160.445 4.01148 161.043 5.8541L162.702 10.9581C162.97 11.7822 163.737 12.3401 164.604 12.3401H169.971C171.908 12.3401 172.714 14.8193 171.146 15.9581L166.804 19.1126C166.103 19.6219 165.81 20.5246 166.078 21.3486L167.736 26.4527C168.335 28.2953 166.226 29.8275 164.659 28.6887L160.317 25.5343C159.616 25.025 158.667 25.025 157.966 25.5343L153.624 28.6887C152.057 29.8275 149.948 28.2953 150.546 26.4527L152.205 21.3486C152.472 20.5246 152.179 19.6219 151.478 19.1126L147.136 15.9581C145.569 14.8193 146.375 12.3401 148.312 12.3401H153.679C154.545 12.3401 155.313 11.7822 155.581 10.9581L157.239 5.8541Z" fill="#FFB04E"/>
<path d="M51.2732 5.99975C51.8639 4.14052 54.4948 4.14052 55.0855 5.99975L56.6568 10.9457C56.9206 11.776 57.6916 12.3401 58.5629 12.3401H63.7417C65.6682 12.3401 66.4809 14.7964 64.9345 15.9454L60.6681 19.1157C59.9828 19.6249 59.6963 20.5129 59.9548 21.3266L61.5661 26.3984C62.154 28.2489 60.0257 29.7674 58.4671 28.6093L54.3722 25.5665C53.664 25.0403 52.6947 25.0403 51.9865 25.5665L47.8916 28.6093C46.333 29.7674 44.2047 28.2489 44.7926 26.3984L46.4039 21.3266C46.6624 20.5129 46.3759 19.6249 45.6907 19.1157L41.4242 15.9454C39.8778 14.7964 40.6905 12.3401 42.617 12.3401H47.7958C48.6671 12.3401 49.4381 11.776 49.7019 10.9457L51.2732 5.99975Z" fill="#FFB04E"/>
<path d="M121.915 5.99975C122.505 4.14052 125.136 4.14052 125.727 5.99975L127.298 10.9457C127.562 11.776 128.333 12.3401 129.204 12.3401H134.383C136.31 12.3401 137.122 14.7964 135.576 15.9454L131.309 19.1157C130.624 19.6249 130.338 20.5129 130.596 21.3266L132.207 26.3984C132.795 28.2489 130.667 29.7674 129.108 28.6093L125.014 25.5665C124.305 25.0403 123.336 25.0403 122.628 25.5665L118.533 28.6093C116.974 29.7674 114.846 28.2489 115.434 26.3984L117.045 21.3266C117.304 20.5129 117.017 19.6249 116.332 19.1157L112.065 15.9454C110.519 14.7964 111.332 12.3401 113.258 12.3401H118.437C119.308 12.3401 120.079 11.776 120.343 10.9457L121.915 5.99975Z" fill="#FFB04E"/>
</svg>
