<svg width="23" height="22" viewBox="0 0 23 22" fill="none" xmlns="http://www.w3.org/2000/svg">
<path d="M16.4163 1.78471C17.6322 1.78824 18.7974 2.25953 19.6573 3.09565C20.5171 3.93177 21.0018 5.06477 21.0054 6.24721V15.1713C21.0018 16.3537 20.5171 17.4867 19.6573 18.3228C18.7974 19.1589 17.6322 19.6302 16.4163 19.6338H7.23895C6.02296 19.6302 4.8578 19.1589 3.99795 18.3228C3.13811 17.4867 2.65345 16.3537 2.64981 15.1713V6.24721C2.65345 5.06477 3.13811 3.93177 3.99795 3.09565C4.8578 2.25953 6.02296 1.78824 7.23895 1.78471H16.4163ZM16.4163 0H7.23895C3.7054 0 0.814453 2.81117 0.814453 6.24721V15.1713C0.814453 18.6073 3.7054 21.4185 7.23895 21.4185H16.4163C19.9498 21.4185 22.8408 18.6073 22.8408 15.1713V6.24721C22.8408 2.81117 19.9498 0 16.4163 0Z" fill="#D2D2D2"/>
<path d="M17.7929 6.24762C17.5206 6.24762 17.2545 6.16911 17.0281 6.02202C16.8017 5.87493 16.6253 5.66586 16.5211 5.42125C16.4169 5.17664 16.3896 4.90748 16.4427 4.64781C16.4958 4.38814 16.627 4.14961 16.8195 3.9624C17.012 3.77518 17.2573 3.64769 17.5243 3.59603C17.7914 3.54438 18.0682 3.57089 18.3197 3.67221C18.5713 3.77353 18.7863 3.94511 18.9375 4.16525C19.0888 4.38539 19.1696 4.64421 19.1696 4.90897C19.1699 5.08487 19.1346 5.25911 19.0656 5.4217C18.9965 5.58428 18.8951 5.732 18.7672 5.85638C18.6393 5.98076 18.4874 6.07935 18.3202 6.14649C18.153 6.21363 17.9738 6.248 17.7929 6.24762ZM11.8276 7.13974C12.5537 7.13974 13.2635 7.34911 13.8672 7.74138C14.471 8.13364 14.9415 8.69119 15.2194 9.3435C15.4972 9.99582 15.5699 10.7136 15.4283 11.4061C15.2866 12.0986 14.937 12.7347 14.4236 13.2339C13.9101 13.7332 13.256 14.0732 12.5438 14.211C11.8317 14.3487 11.0935 14.278 10.4227 14.0078C9.75188 13.7376 9.17852 13.28 8.77512 12.693C8.37172 12.1059 8.15641 11.4157 8.15641 10.7096C8.15745 9.76316 8.54457 8.85573 9.23283 8.18646C9.92109 7.51719 10.8543 7.14075 11.8276 7.13974ZM11.8276 5.35503C10.7385 5.35503 9.67388 5.66907 8.76833 6.25744C7.86278 6.84582 7.15699 7.68209 6.74021 8.66052C6.32343 9.63895 6.21438 10.7156 6.42685 11.7543C6.63933 12.793 7.16378 13.7471 7.93389 14.4959C8.70399 15.2448 9.68517 15.7548 10.7533 15.9614C11.8215 16.168 12.9287 16.0619 13.9349 15.6567C14.9411 15.2514 15.8011 14.5651 16.4062 13.6845C17.0112 12.8039 17.3342 11.7687 17.3342 10.7096C17.3342 9.28951 16.754 7.92754 15.7214 6.92336C14.6887 5.91917 13.2881 5.35503 11.8276 5.35503Z" fill="#D2D2D2"/>
</svg>
