<svg width="22" height="22" viewBox="0 0 22 22" fill="none" xmlns="http://www.w3.org/2000/svg">
<path d="M19.9689 0H2.00597C1.02444 0 0.16687 0.71367 0.16687 1.69387V19.8861C0.16687 20.8717 1.02444 21.7499 2.00597 21.7499H19.9636C20.9504 21.7499 21.6902 20.8659 21.6902 19.8861V1.69387C21.696 0.71367 20.9504 0 19.9689 0ZM6.83864 18.1296H3.75522V8.44169H6.83864V18.1296ZM5.40358 6.96872H5.38148C4.39468 6.96872 3.7557 6.2264 3.7557 5.29718C3.7557 4.35096 4.41149 3.62612 5.4204 3.62612C6.42931 3.62612 7.04666 4.34562 7.06876 5.29718C7.06828 6.2264 6.42931 6.96872 5.40358 6.96872ZM18.1077 18.1296H15.0242V12.8325C15.0242 11.5634 14.5755 10.6963 13.46 10.6963C12.6077 10.6963 12.1032 11.2789 11.8789 11.8464C11.7948 12.0503 11.7722 12.328 11.7722 12.6116V18.1296H8.68878V8.44169H11.7722V9.7899C12.2209 9.1442 12.9219 8.21497 14.5529 8.21497C16.577 8.21497 18.1081 9.56317 18.1081 12.4698L18.1077 18.1296Z" fill="#D2D2D2"/>
</svg>
