<svg width="30" height="26" viewBox="0 0 30 26" fill="none" xmlns="http://www.w3.org/2000/svg">
<path d="M18.9915 12.875C18.5511 12.875 18.1206 13.007 17.7544 13.2542C17.3883 13.5014 17.1029 13.8528 16.9344 14.264C16.7659 14.6751 16.7218 15.1275 16.8077 15.564C16.8936 16.0004 17.1056 16.4013 17.417 16.716C17.7284 17.0307 18.1252 17.2449 18.5571 17.3318C18.989 17.4186 19.4367 17.374 19.8435 17.2037C20.2504 17.0334 20.5981 16.745 20.8428 16.375C21.0874 16.005 21.218 15.57 21.218 15.125C21.218 14.5283 20.9834 13.956 20.5659 13.534C20.1483 13.1121 19.582 12.875 18.9915 12.875Z" fill="#D2D2D2"/>
<path d="M11.4322 17.2036C12.5683 16.7281 13.1078 15.4119 12.6372 14.2639C12.1667 13.1158 10.8642 12.5707 9.7281 13.0462C8.592 13.5217 8.0525 14.8379 8.52309 15.986C8.99367 17.134 10.2961 17.6792 11.4322 17.2036Z" fill="#D2D2D2"/>
<path d="M29.5028 12.737C29.5028 10.8063 27.9609 9.23596 26.0681 9.23596C25.2704 9.23589 24.4977 9.5175 23.8841 10.032C21.7374 8.56064 18.9295 7.66001 15.9322 7.4774L17.2815 2.58738L21.3547 3.40445C21.4712 5.04353 22.8267 6.34403 24.4612 6.34403C26.1785 6.34403 27.5757 4.92035 27.5757 3.17418C27.5757 1.42801 26.1295 0 24.4121 0C23.2143 0 22.1851 0.69265 21.6613 1.78084L16.1413 0.673462L14.2339 7.45264L13.9499 7.46069C10.8446 7.59749 7.91836 8.50864 5.68399 10.0314C5.0705 9.51498 4.2963 9.23335 3.49745 9.23596C1.60286 9.23596 0.0627783 10.8063 0.0627783 12.737C0.0600739 13.3515 0.21805 13.9558 0.520759 14.489C0.823468 15.0222 1.2602 15.4653 1.78686 15.7737C1.75018 16.0474 1.73195 16.3233 1.73227 16.5995C1.73902 19.0593 3.11166 21.3657 5.59628 23.0989C8.0582 24.8073 11.3181 25.75 14.7828 25.75C18.2475 25.75 21.5147 24.8073 23.9724 23.0951C26.4582 21.362 27.8272 19.055 27.8272 16.592C27.8266 16.3168 27.8094 16.0419 27.7757 15.7688C28.3026 15.4617 28.7399 15.0196 29.0432 14.4873C29.3465 13.9549 29.505 13.3511 29.5028 12.737ZM24.4735 1.67127C24.7646 1.67127 25.0492 1.7584 25.2913 1.92164C25.5333 2.08488 25.722 2.31689 25.8334 2.58835C25.9448 2.8598 25.974 3.1585 25.9172 3.44667C25.8604 3.73485 25.7202 3.99955 25.5143 4.20731C25.3085 4.41507 25.0462 4.55656 24.7606 4.61388C24.4751 4.6712 24.1791 4.64179 23.9102 4.52935C23.6412 4.41691 23.4113 4.2265 23.2495 3.98219C23.0878 3.73789 23.0015 3.45067 23.0015 3.15685C23.0015 2.76285 23.1566 2.38499 23.4326 2.10639C23.7087 1.82779 24.0831 1.67127 24.4735 1.67127ZM1.70161 12.737C1.69981 12.2518 1.88878 11.7857 2.22705 11.4409C2.56533 11.0962 3.02529 10.9009 3.50604 10.8979C3.79752 10.8986 4.08439 10.9715 4.3414 11.1103C3.39073 12.0022 2.68969 12.9926 2.25177 14.0616C2.07814 13.8883 1.94015 13.682 1.84574 13.4547C1.75133 13.2274 1.70234 12.9834 1.70161 12.737ZM23.0518 21.7266C20.8597 23.2487 17.9243 24.0874 14.7859 24.0874C11.6474 24.0874 8.71079 23.2499 6.52057 21.7266C4.49657 20.3159 3.37785 18.4917 3.37785 16.5889C3.37898 16.0124 3.48178 15.4406 3.68145 14.9003C4.02982 13.926 4.6726 13.0137 5.59199 12.1898C5.87923 11.9337 6.18154 11.6954 6.49727 11.4761L6.51567 11.4631L6.53039 11.4526C8.72122 9.9348 11.653 9.1004 14.7865 9.1004C17.92 9.1004 20.8523 9.93665 23.0432 11.4526L23.0573 11.4631L23.0781 11.4786C23.3934 11.697 23.6955 11.9343 23.9828 12.1892C24.9028 13.0137 25.5456 13.9254 25.894 14.901C26.0204 15.255 26.109 15.6217 26.1583 15.9947C26.1829 16.1929 26.1952 16.3923 26.1951 16.592C26.1945 18.4936 25.0782 20.3177 23.0518 21.7266ZM27.3206 14.056C26.8833 12.9864 26.1822 11.9954 25.2309 11.1022C25.489 10.9649 25.7764 10.8934 26.0681 10.8942C26.5488 10.8972 27.0087 11.0925 27.3469 11.4372C27.6851 11.782 27.8739 12.2481 27.872 12.7333C27.8715 12.9798 27.8226 13.2238 27.7279 13.4511C27.6332 13.6784 27.4948 13.8844 27.3206 14.0573V14.056Z" fill="#D2D2D2"/>
<path d="M18.9438 19.5138C18.9284 19.5294 17.363 21.1431 14.7907 21.1556C12.193 21.1431 10.6913 19.5788 10.6276 19.5138C10.5797 19.4657 10.5149 19.4387 10.4473 19.4387C10.3798 19.4387 10.315 19.4657 10.267 19.5138L9.4197 20.3556C9.39567 20.3797 9.3766 20.4084 9.36359 20.44C9.35057 20.4716 9.34387 20.5055 9.34387 20.5397C9.34387 20.5739 9.35057 20.6078 9.36359 20.6394C9.3766 20.671 9.39567 20.6996 9.4197 20.7237C9.62999 20.9362 11.5659 22.8631 14.787 22.8769C17.9994 22.8631 19.9439 20.9362 20.1542 20.7237C20.1783 20.6996 20.1973 20.6709 20.2104 20.6392C20.2234 20.6076 20.2301 20.5736 20.2301 20.5394C20.2301 20.5051 20.2234 20.4712 20.2104 20.4395C20.1973 20.4079 20.1783 20.3792 20.1542 20.355L19.3063 19.5131C19.2584 19.4653 19.1939 19.4385 19.1266 19.4385C19.0593 19.4385 18.9947 19.4653 18.9469 19.5131L18.9438 19.5138Z" fill="#D2D2D2"/>
</svg>
