<svg width="22" height="18" viewBox="0 0 22 18" fill="none" xmlns="http://www.w3.org/2000/svg">
<path d="M21.9142 2.03383C21.1171 2.38354 20.2738 2.61393 19.4109 2.71773C20.3178 2.18151 20.9998 1.32962 21.329 0.321843C20.4716 0.828105 19.5351 1.18332 18.5597 1.37228C18.149 0.937591 17.655 0.591785 17.1078 0.35588C16.5606 0.119974 15.9716 -0.00110288 15.3766 7.56958e-06C12.9677 7.56958e-06 11.0182 1.93996 11.0182 4.33138C11.0165 4.66402 11.0543 4.99566 11.1307 5.31924C9.40328 5.23746 7.71182 4.79249 6.16451 4.01279C4.61719 3.23308 3.24808 2.13582 2.14477 0.791187C1.7577 1.45011 1.553 2.20192 1.55206 2.96805C1.55206 4.46995 2.32803 5.79752 3.49974 6.57529C2.80553 6.55865 2.12556 6.37312 1.51753 6.03443V6.08807C1.51753 8.18894 3.02255 9.93669 5.0145 10.3345C4.63992 10.4353 4.25392 10.4864 3.86625 10.4865C3.59118 10.487 3.31673 10.46 3.0469 10.406C3.60066 12.127 5.21236 13.3785 7.12153 13.4143C5.5702 14.6216 3.66556 15.2741 1.70699 15.2693C1.35933 15.2688 1.012 15.2479 0.666748 15.2067C2.65921 16.4915 4.9753 17.1711 7.33932 17.1646C15.3673 17.1646 19.7531 10.5625 19.7531 4.83648C19.7531 4.64875 19.7482 4.46101 19.7394 4.27774C20.5907 3.66628 21.3271 2.90641 21.9142 2.03383Z" fill="#D2D2D2"/>
</svg>
