<svg width="27" height="19" viewBox="0 0 27 19" fill="none" xmlns="http://www.w3.org/2000/svg">
<path d="M26.1991 4.19522C26.1991 1.96872 24.5355 0.177625 22.48 0.177625C19.6956 0.0494777 16.856 0 13.9541 0H13.0494C10.1545 0 7.3099 0.0494778 4.52557 0.17812C2.47502 0.17812 0.811465 1.97911 0.811465 4.20562C0.685818 5.96653 0.632544 7.72794 0.63556 9.48935C0.630534 11.2508 0.687493 13.0138 0.806439 14.7785C0.806439 17.005 2.47 18.811 4.52055 18.811C7.4456 18.9446 10.446 19.0039 13.4967 18.999C16.5525 19.0089 19.5445 18.9462 22.4729 18.811C24.5285 18.811 26.1921 17.005 26.1921 14.7785C26.3127 13.0122 26.368 11.2508 26.3629 9.4844C26.3743 7.72299 26.3197 5.95993 26.1991 4.19522ZM11.0391 14.3431V4.62073L18.3266 9.47946L11.0391 14.3431Z" fill="#D2D2D2"/>
</svg>
